<mxfile host="Electron" modified="2023-07-14T08:31:56.434Z" agent="Mozilla/5.0 (Windows NT 10.0; Win64; x64) AppleWebKit/537.36 (KHTML, like Gecko) draw.io/21.6.1 Chrome/112.0.5615.204 Electron/24.6.1 Safari/537.36" etag="fSHo-NYfP941ugklLiEF" version="21.6.1" type="device">
  <diagram name="Page-1" id="B9-1_uc5IfuQoMsTiD_7">
    <mxGraphModel dx="1521" dy="751" grid="1" gridSize="10" guides="1" tooltips="1" connect="1" arrows="1" fold="1" page="1" pageScale="1" pageWidth="850" pageHeight="1100" math="0" shadow="0">
      <root>
        <mxCell id="0" />
        <mxCell id="1" parent="0" />
        <mxCell id="I9BHoQAVJxTDI1uV_Zfo-1" value="" style="image;html=1;image=img/lib/clip_art/networking/Router_Icon_128x128.png" vertex="1" parent="1">
          <mxGeometry x="420" y="485" width="70" height="70" as="geometry" />
        </mxCell>
        <mxCell id="I9BHoQAVJxTDI1uV_Zfo-2" value="" style="image;html=1;image=img/lib/clip_art/computers/Printer_128x128.png" vertex="1" parent="1">
          <mxGeometry x="382.5" y="740" width="50" height="70" as="geometry" />
        </mxCell>
        <mxCell id="I9BHoQAVJxTDI1uV_Zfo-3" value="" style="image;html=1;image=img/lib/clip_art/networking/Wireless_Router_N_128x128.png" vertex="1" parent="1">
          <mxGeometry x="222.5" y="740" width="60" height="60" as="geometry" />
        </mxCell>
        <mxCell id="I9BHoQAVJxTDI1uV_Zfo-4" value="" style="image;points=[];aspect=fixed;html=1;align=center;shadow=0;dashed=0;image=img/lib/allied_telesis/computer_and_terminals/Personal_Computer_with_Server.svg;" vertex="1" parent="1">
          <mxGeometry x="302.5" y="770" width="50" height="50" as="geometry" />
        </mxCell>
        <mxCell id="I9BHoQAVJxTDI1uV_Zfo-8" value="" style="verticalLabelPosition=bottom;sketch=0;aspect=fixed;html=1;verticalAlign=top;strokeColor=none;align=center;outlineConnect=0;shape=mxgraph.citrix.cell_phone;" vertex="1" parent="1">
          <mxGeometry x="382.5" y="860" width="16.67" height="40" as="geometry" />
        </mxCell>
        <mxCell id="I9BHoQAVJxTDI1uV_Zfo-9" value="" style="verticalLabelPosition=bottom;sketch=0;aspect=fixed;html=1;verticalAlign=top;strokeColor=none;align=center;outlineConnect=0;shape=mxgraph.citrix.laptop_2;" vertex="1" parent="1">
          <mxGeometry x="262.5" y="850" width="53.64" height="40" as="geometry" />
        </mxCell>
        <mxCell id="I9BHoQAVJxTDI1uV_Zfo-14" value="" style="endArrow=none;dashed=1;html=1;dashPattern=1 3;strokeWidth=2;rounded=0;entryX=0.75;entryY=1;entryDx=0;entryDy=0;" edge="1" parent="1" source="I9BHoQAVJxTDI1uV_Zfo-9" target="I9BHoQAVJxTDI1uV_Zfo-3">
          <mxGeometry width="50" height="50" relative="1" as="geometry">
            <mxPoint x="312.5" y="780" as="sourcePoint" />
            <mxPoint x="362.5" y="730" as="targetPoint" />
            <Array as="points" />
          </mxGeometry>
        </mxCell>
        <mxCell id="I9BHoQAVJxTDI1uV_Zfo-15" value="" style="endArrow=none;dashed=1;html=1;dashPattern=1 3;strokeWidth=2;rounded=0;entryX=1;entryY=1;entryDx=0;entryDy=0;" edge="1" parent="1" source="I9BHoQAVJxTDI1uV_Zfo-8" target="I9BHoQAVJxTDI1uV_Zfo-3">
          <mxGeometry width="50" height="50" relative="1" as="geometry">
            <mxPoint x="293.5" y="860" as="sourcePoint" />
            <mxPoint x="277.5" y="810" as="targetPoint" />
          </mxGeometry>
        </mxCell>
        <mxCell id="I9BHoQAVJxTDI1uV_Zfo-16" value="HR Dept&lt;br&gt;VLAN 18&lt;br&gt;&lt;span style=&quot;background-color: rgb(125, 125, 125);&quot;&gt;&lt;font color=&quot;#ffffff&quot;&gt;192.168.1.64/26&lt;/font&gt;&lt;/span&gt;" style="text;html=1;strokeColor=none;fillColor=none;align=center;verticalAlign=middle;whiteSpace=wrap;rounded=0;" vertex="1" parent="1">
          <mxGeometry x="357.5" y="810" width="100" height="40" as="geometry" />
        </mxCell>
        <mxCell id="I9BHoQAVJxTDI1uV_Zfo-21" value="" style="image;html=1;image=img/lib/clip_art/computers/Printer_128x128.png" vertex="1" parent="1">
          <mxGeometry x="178.64" y="435" width="50" height="70" as="geometry" />
        </mxCell>
        <mxCell id="I9BHoQAVJxTDI1uV_Zfo-22" value="" style="image;html=1;image=img/lib/clip_art/networking/Wireless_Router_N_128x128.png" vertex="1" parent="1">
          <mxGeometry x="168.64" y="575" width="60" height="60" as="geometry" />
        </mxCell>
        <mxCell id="I9BHoQAVJxTDI1uV_Zfo-23" value="" style="image;points=[];aspect=fixed;html=1;align=center;shadow=0;dashed=0;image=img/lib/allied_telesis/computer_and_terminals/Personal_Computer_with_Server.svg;" vertex="1" parent="1">
          <mxGeometry x="183.64" y="515" width="50" height="50" as="geometry" />
        </mxCell>
        <mxCell id="I9BHoQAVJxTDI1uV_Zfo-24" value="" style="verticalLabelPosition=bottom;sketch=0;aspect=fixed;html=1;verticalAlign=top;strokeColor=none;align=center;outlineConnect=0;shape=mxgraph.citrix.cell_phone;" vertex="1" parent="1">
          <mxGeometry x="68.64" y="505" width="16.67" height="40" as="geometry" />
        </mxCell>
        <mxCell id="I9BHoQAVJxTDI1uV_Zfo-25" value="" style="verticalLabelPosition=bottom;sketch=0;aspect=fixed;html=1;verticalAlign=top;strokeColor=none;align=center;outlineConnect=0;shape=mxgraph.citrix.laptop_2;" vertex="1" parent="1">
          <mxGeometry x="58.64" y="575" width="53.64" height="40" as="geometry" />
        </mxCell>
        <mxCell id="I9BHoQAVJxTDI1uV_Zfo-26" value="" style="endArrow=none;dashed=1;html=1;dashPattern=1 3;strokeWidth=2;rounded=0;entryX=0;entryY=0.5;entryDx=0;entryDy=0;" edge="1" parent="1" source="I9BHoQAVJxTDI1uV_Zfo-25" target="I9BHoQAVJxTDI1uV_Zfo-22">
          <mxGeometry width="50" height="50" relative="1" as="geometry">
            <mxPoint x="108.64" y="505" as="sourcePoint" />
            <mxPoint x="158.64" y="455" as="targetPoint" />
          </mxGeometry>
        </mxCell>
        <mxCell id="I9BHoQAVJxTDI1uV_Zfo-27" value="" style="endArrow=none;dashed=1;html=1;dashPattern=1 3;strokeWidth=2;rounded=0;entryX=0;entryY=0.25;entryDx=0;entryDy=0;" edge="1" parent="1" source="I9BHoQAVJxTDI1uV_Zfo-24" target="I9BHoQAVJxTDI1uV_Zfo-22">
          <mxGeometry width="50" height="50" relative="1" as="geometry">
            <mxPoint x="89.64" y="585" as="sourcePoint" />
            <mxPoint x="73.64" y="535" as="targetPoint" />
          </mxGeometry>
        </mxCell>
        <mxCell id="I9BHoQAVJxTDI1uV_Zfo-28" value="Admin Dept&lt;br&gt;VLAN 17&lt;br&gt;&lt;span style=&quot;background-color: rgb(125, 125, 125);&quot;&gt;&lt;font color=&quot;#ffffff&quot;&gt;192.168.1.0/26&lt;/font&gt;&lt;/span&gt;" style="text;html=1;strokeColor=none;fillColor=none;align=center;verticalAlign=middle;whiteSpace=wrap;rounded=0;" vertex="1" parent="1">
          <mxGeometry x="58.64" y="450" width="100" height="40" as="geometry" />
        </mxCell>
        <mxCell id="I9BHoQAVJxTDI1uV_Zfo-33" value="" style="image;html=1;image=img/lib/clip_art/computers/Printer_128x128.png" vertex="1" parent="1">
          <mxGeometry x="388.64" y="210" width="50" height="70" as="geometry" />
        </mxCell>
        <mxCell id="I9BHoQAVJxTDI1uV_Zfo-34" value="" style="image;html=1;image=img/lib/clip_art/networking/Wireless_Router_N_128x128.png" vertex="1" parent="1">
          <mxGeometry x="228.64" y="210" width="60" height="60" as="geometry" />
        </mxCell>
        <mxCell id="I9BHoQAVJxTDI1uV_Zfo-35" value="" style="image;points=[];aspect=fixed;html=1;align=center;shadow=0;dashed=0;image=img/lib/allied_telesis/computer_and_terminals/Personal_Computer_with_Server.svg;" vertex="1" parent="1">
          <mxGeometry x="308.64" y="240" width="50" height="50" as="geometry" />
        </mxCell>
        <mxCell id="I9BHoQAVJxTDI1uV_Zfo-36" value="" style="verticalLabelPosition=bottom;sketch=0;aspect=fixed;html=1;verticalAlign=top;strokeColor=none;align=center;outlineConnect=0;shape=mxgraph.citrix.cell_phone;" vertex="1" parent="1">
          <mxGeometry x="325.31000000000006" y="160" width="16.67" height="40" as="geometry" />
        </mxCell>
        <mxCell id="I9BHoQAVJxTDI1uV_Zfo-37" value="" style="verticalLabelPosition=bottom;sketch=0;aspect=fixed;html=1;verticalAlign=top;strokeColor=none;align=center;outlineConnect=0;shape=mxgraph.citrix.laptop_2;" vertex="1" parent="1">
          <mxGeometry x="225" y="140" width="53.64" height="40" as="geometry" />
        </mxCell>
        <mxCell id="I9BHoQAVJxTDI1uV_Zfo-39" value="" style="endArrow=none;dashed=1;html=1;dashPattern=1 3;strokeWidth=2;rounded=0;entryX=1;entryY=0.5;entryDx=0;entryDy=0;" edge="1" parent="1" source="I9BHoQAVJxTDI1uV_Zfo-36" target="I9BHoQAVJxTDI1uV_Zfo-34">
          <mxGeometry width="50" height="50" relative="1" as="geometry">
            <mxPoint x="299.64" y="330" as="sourcePoint" />
            <mxPoint x="283.64" y="280" as="targetPoint" />
          </mxGeometry>
        </mxCell>
        <mxCell id="I9BHoQAVJxTDI1uV_Zfo-40" value="Finance Dept&lt;br&gt;VLAN 15&lt;br&gt;&lt;span style=&quot;background-color: rgb(125, 125, 125);&quot;&gt;&lt;font color=&quot;#ffffff&quot;&gt;192.168.1.130/26&lt;/font&gt;&lt;/span&gt;" style="text;html=1;strokeColor=none;fillColor=none;align=center;verticalAlign=middle;whiteSpace=wrap;rounded=0;" vertex="1" parent="1">
          <mxGeometry x="356.97" y="150" width="100" height="40" as="geometry" />
        </mxCell>
        <mxCell id="I9BHoQAVJxTDI1uV_Zfo-41" value="" style="rounded=0;whiteSpace=wrap;html=1;fillColor=#e1d5e7;strokeColor=#9673a6;opacity=30;" vertex="1" parent="1">
          <mxGeometry x="31.14" y="437.5" width="247.5" height="205" as="geometry" />
        </mxCell>
        <mxCell id="I9BHoQAVJxTDI1uV_Zfo-46" value="" style="rounded=0;whiteSpace=wrap;html=1;fillColor=#d5e8d4;strokeColor=#82b366;opacity=30;" vertex="1" parent="1">
          <mxGeometry x="190" y="130" width="275" height="180" as="geometry" />
        </mxCell>
        <mxCell id="I9BHoQAVJxTDI1uV_Zfo-47" value="" style="image;html=1;image=img/lib/clip_art/networking/Firewall_128x128.png" vertex="1" parent="1">
          <mxGeometry x="550" y="480" width="80" height="80" as="geometry" />
        </mxCell>
        <mxCell id="I9BHoQAVJxTDI1uV_Zfo-48" value="" style="endArrow=none;html=1;rounded=0;exitX=0;exitY=0.5;exitDx=0;exitDy=0;entryX=1;entryY=0.5;entryDx=0;entryDy=0;" edge="1" parent="1" source="I9BHoQAVJxTDI1uV_Zfo-47" target="I9BHoQAVJxTDI1uV_Zfo-1">
          <mxGeometry width="50" height="50" relative="1" as="geometry">
            <mxPoint x="280" y="615" as="sourcePoint" />
            <mxPoint x="430" y="548" as="targetPoint" />
          </mxGeometry>
        </mxCell>
        <mxCell id="I9BHoQAVJxTDI1uV_Zfo-49" value="" style="image;aspect=fixed;perimeter=ellipsePerimeter;html=1;align=center;shadow=0;dashed=0;spacingTop=3;image=img/lib/active_directory/internet_globe.svg;" vertex="1" parent="1">
          <mxGeometry x="710" y="470" width="100" height="100" as="geometry" />
        </mxCell>
        <mxCell id="I9BHoQAVJxTDI1uV_Zfo-51" value="" style="shape=link;html=1;rounded=0;entryX=0;entryY=0.5;entryDx=0;entryDy=0;exitX=1;exitY=0.5;exitDx=0;exitDy=0;strokeColor=default;" edge="1" parent="1" source="I9BHoQAVJxTDI1uV_Zfo-47" target="I9BHoQAVJxTDI1uV_Zfo-49">
          <mxGeometry width="100" relative="1" as="geometry">
            <mxPoint x="310" y="560" as="sourcePoint" />
            <mxPoint x="410" y="560" as="targetPoint" />
          </mxGeometry>
        </mxCell>
        <mxCell id="I9BHoQAVJxTDI1uV_Zfo-52" value="L3 Switch" style="text;html=1;strokeColor=none;fillColor=default;align=center;verticalAlign=middle;whiteSpace=wrap;rounded=0;" vertex="1" parent="1">
          <mxGeometry x="430" y="515" width="45" height="20" as="geometry" />
        </mxCell>
        <mxCell id="I9BHoQAVJxTDI1uV_Zfo-53" value="" style="image;html=1;image=img/lib/clip_art/networking/Switch_128x128.png" vertex="1" parent="1">
          <mxGeometry x="396.67" y="610" width="60.83" height="60" as="geometry" />
        </mxCell>
        <mxCell id="I9BHoQAVJxTDI1uV_Zfo-55" value="" style="image;html=1;image=img/lib/clip_art/networking/Switch_128x128.png" vertex="1" parent="1">
          <mxGeometry x="316.14" y="490" width="60.83" height="60" as="geometry" />
        </mxCell>
        <mxCell id="I9BHoQAVJxTDI1uV_Zfo-56" value="" style="image;html=1;image=img/lib/clip_art/networking/Switch_128x128.png" vertex="1" parent="1">
          <mxGeometry x="395" y="375" width="60.83" height="60" as="geometry" />
        </mxCell>
        <mxCell id="I9BHoQAVJxTDI1uV_Zfo-57" value="" style="endArrow=none;html=1;rounded=0;entryX=0.5;entryY=1;entryDx=0;entryDy=0;exitX=0.75;exitY=0;exitDx=0;exitDy=0;" edge="1" parent="1" source="I9BHoQAVJxTDI1uV_Zfo-53" target="I9BHoQAVJxTDI1uV_Zfo-1">
          <mxGeometry width="50" height="50" relative="1" as="geometry">
            <mxPoint x="500" y="620" as="sourcePoint" />
            <mxPoint x="550" y="570" as="targetPoint" />
          </mxGeometry>
        </mxCell>
        <mxCell id="I9BHoQAVJxTDI1uV_Zfo-58" value="" style="endArrow=none;html=1;rounded=0;entryX=0;entryY=0.5;entryDx=0;entryDy=0;exitX=1;exitY=0.5;exitDx=0;exitDy=0;" edge="1" parent="1" source="I9BHoQAVJxTDI1uV_Zfo-55" target="I9BHoQAVJxTDI1uV_Zfo-1">
          <mxGeometry width="50" height="50" relative="1" as="geometry">
            <mxPoint x="452" y="620" as="sourcePoint" />
            <mxPoint x="465" y="565" as="targetPoint" />
          </mxGeometry>
        </mxCell>
        <mxCell id="I9BHoQAVJxTDI1uV_Zfo-59" value="" style="endArrow=none;html=1;rounded=0;entryX=0.5;entryY=0;entryDx=0;entryDy=0;exitX=0.75;exitY=1;exitDx=0;exitDy=0;" edge="1" parent="1" source="I9BHoQAVJxTDI1uV_Zfo-56" target="I9BHoQAVJxTDI1uV_Zfo-1">
          <mxGeometry width="50" height="50" relative="1" as="geometry">
            <mxPoint x="387" y="530" as="sourcePoint" />
            <mxPoint x="430" y="530" as="targetPoint" />
          </mxGeometry>
        </mxCell>
        <mxCell id="I9BHoQAVJxTDI1uV_Zfo-60" value="" style="endArrow=none;html=1;rounded=0;exitX=0.75;exitY=1;exitDx=0;exitDy=0;entryX=0.75;entryY=0;entryDx=0;entryDy=0;" edge="1" parent="1" source="I9BHoQAVJxTDI1uV_Zfo-53" target="I9BHoQAVJxTDI1uV_Zfo-2">
          <mxGeometry width="50" height="50" relative="1" as="geometry">
            <mxPoint x="397" y="540" as="sourcePoint" />
            <mxPoint x="470" y="680" as="targetPoint" />
          </mxGeometry>
        </mxCell>
        <mxCell id="I9BHoQAVJxTDI1uV_Zfo-61" value="" style="endArrow=none;html=1;rounded=0;exitX=0.5;exitY=1;exitDx=0;exitDy=0;" edge="1" parent="1" source="I9BHoQAVJxTDI1uV_Zfo-53" target="I9BHoQAVJxTDI1uV_Zfo-4">
          <mxGeometry width="50" height="50" relative="1" as="geometry">
            <mxPoint x="452" y="680" as="sourcePoint" />
            <mxPoint x="430" y="750" as="targetPoint" />
          </mxGeometry>
        </mxCell>
        <mxCell id="I9BHoQAVJxTDI1uV_Zfo-17" value="" style="rounded=0;whiteSpace=wrap;html=1;fillColor=#fff2cc;strokeColor=#d6b656;opacity=30;" vertex="1" parent="1">
          <mxGeometry x="192.5" y="720" width="270" height="190" as="geometry" />
        </mxCell>
        <mxCell id="I9BHoQAVJxTDI1uV_Zfo-64" value="" style="endArrow=none;html=1;rounded=0;exitX=0;exitY=0.75;exitDx=0;exitDy=0;entryX=1;entryY=0.75;entryDx=0;entryDy=0;" edge="1" parent="1" source="I9BHoQAVJxTDI1uV_Zfo-55" target="I9BHoQAVJxTDI1uV_Zfo-22">
          <mxGeometry width="50" height="50" relative="1" as="geometry">
            <mxPoint x="422" y="680" as="sourcePoint" />
            <mxPoint x="293" y="750" as="targetPoint" />
          </mxGeometry>
        </mxCell>
        <mxCell id="I9BHoQAVJxTDI1uV_Zfo-65" value="" style="endArrow=none;html=1;rounded=0;exitX=0.25;exitY=1;exitDx=0;exitDy=0;entryX=1;entryY=0.5;entryDx=0;entryDy=0;" edge="1" parent="1" source="I9BHoQAVJxTDI1uV_Zfo-53" target="I9BHoQAVJxTDI1uV_Zfo-3">
          <mxGeometry width="50" height="50" relative="1" as="geometry">
            <mxPoint x="437" y="680" as="sourcePoint" />
            <mxPoint x="357" y="780" as="targetPoint" />
          </mxGeometry>
        </mxCell>
        <mxCell id="I9BHoQAVJxTDI1uV_Zfo-66" value="" style="endArrow=none;html=1;rounded=0;exitX=0;exitY=0.5;exitDx=0;exitDy=0;" edge="1" parent="1" source="I9BHoQAVJxTDI1uV_Zfo-55" target="I9BHoQAVJxTDI1uV_Zfo-23">
          <mxGeometry width="50" height="50" relative="1" as="geometry">
            <mxPoint x="326" y="545" as="sourcePoint" />
            <mxPoint x="239" y="630" as="targetPoint" />
          </mxGeometry>
        </mxCell>
        <mxCell id="I9BHoQAVJxTDI1uV_Zfo-67" value="" style="endArrow=none;html=1;rounded=0;exitX=0;exitY=0.25;exitDx=0;exitDy=0;entryX=1;entryY=0.5;entryDx=0;entryDy=0;" edge="1" parent="1" source="I9BHoQAVJxTDI1uV_Zfo-55" target="I9BHoQAVJxTDI1uV_Zfo-21">
          <mxGeometry width="50" height="50" relative="1" as="geometry">
            <mxPoint x="326" y="530" as="sourcePoint" />
            <mxPoint x="244" y="545" as="targetPoint" />
          </mxGeometry>
        </mxCell>
        <mxCell id="I9BHoQAVJxTDI1uV_Zfo-68" value="" style="endArrow=none;html=1;rounded=0;exitX=0.5;exitY=0;exitDx=0;exitDy=0;" edge="1" parent="1" source="I9BHoQAVJxTDI1uV_Zfo-56" target="I9BHoQAVJxTDI1uV_Zfo-35">
          <mxGeometry width="50" height="50" relative="1" as="geometry">
            <mxPoint x="326" y="515" as="sourcePoint" />
            <mxPoint x="260" y="370" as="targetPoint" />
          </mxGeometry>
        </mxCell>
        <mxCell id="I9BHoQAVJxTDI1uV_Zfo-69" value="" style="endArrow=none;html=1;rounded=0;entryX=0.25;entryY=1;entryDx=0;entryDy=0;exitX=0.25;exitY=0;exitDx=0;exitDy=0;" edge="1" parent="1" source="I9BHoQAVJxTDI1uV_Zfo-56">
          <mxGeometry width="50" height="50" relative="1" as="geometry">
            <mxPoint x="420" y="385" as="sourcePoint" />
            <mxPoint x="254" y="280" as="targetPoint" />
          </mxGeometry>
        </mxCell>
        <mxCell id="I9BHoQAVJxTDI1uV_Zfo-71" value="" style="endArrow=none;dashed=1;html=1;dashPattern=1 3;strokeWidth=2;rounded=0;entryX=0.5;entryY=0;entryDx=0;entryDy=0;" edge="1" parent="1" source="I9BHoQAVJxTDI1uV_Zfo-37" target="I9BHoQAVJxTDI1uV_Zfo-34">
          <mxGeometry width="50" height="50" relative="1" as="geometry">
            <mxPoint x="335" y="201" as="sourcePoint" />
            <mxPoint x="299" y="250" as="targetPoint" />
          </mxGeometry>
        </mxCell>
        <mxCell id="I9BHoQAVJxTDI1uV_Zfo-72" value="" style="endArrow=none;html=1;rounded=0;exitX=0.75;exitY=0;exitDx=0;exitDy=0;entryX=0.5;entryY=1;entryDx=0;entryDy=0;" edge="1" parent="1" source="I9BHoQAVJxTDI1uV_Zfo-56" target="I9BHoQAVJxTDI1uV_Zfo-33">
          <mxGeometry width="50" height="50" relative="1" as="geometry">
            <mxPoint x="435" y="385" as="sourcePoint" />
            <mxPoint x="364" y="300" as="targetPoint" />
          </mxGeometry>
        </mxCell>
        <mxCell id="I9BHoQAVJxTDI1uV_Zfo-73" value="S1" style="text;html=1;strokeColor=none;fillColor=none;align=center;verticalAlign=middle;whiteSpace=wrap;rounded=0;" vertex="1" parent="1">
          <mxGeometry x="438.64" y="405" width="60" height="30" as="geometry" />
        </mxCell>
        <mxCell id="I9BHoQAVJxTDI1uV_Zfo-75" value="S2" style="text;html=1;strokeColor=none;fillColor=none;align=center;verticalAlign=middle;whiteSpace=wrap;rounded=0;" vertex="1" parent="1">
          <mxGeometry x="316.97" y="530" width="60" height="30" as="geometry" />
        </mxCell>
        <mxCell id="I9BHoQAVJxTDI1uV_Zfo-76" value="S3" style="text;html=1;strokeColor=none;fillColor=none;align=center;verticalAlign=middle;whiteSpace=wrap;rounded=0;" vertex="1" parent="1">
          <mxGeometry x="450" y="625" width="60" height="30" as="geometry" />
        </mxCell>
      </root>
    </mxGraphModel>
  </diagram>
</mxfile>
